<?xml version="1.0" encoding="iso-8859-1"?>
<!-- Generator: Adobe Illustrator 19.0.0, SVG Export Plug-In . SVG Version: 6.00 Build 0)  -->
<svg version="1.1" id="Layer_1" xmlns="http://www.w3.org/2000/svg" xmlns:xlink="http://www.w3.org/1999/xlink" x="0px" y="0px"
	 viewBox="0 0 512.32 512.32" style="enable-background:new 0 0 512.32 512.32;" xml:space="preserve">
<path d="M254.344,322.6C165.4,322.6,93.04,250.24,93.04,161.304C93.04,72.36,165.4,0,254.344,0
	C343.28,0,415.64,72.36,415.64,161.304C415.64,250.24,343.288,322.6,254.344,322.6z M254.344,16
	C174.216,16,109.04,81.176,109.04,161.304c0,80.12,65.176,145.296,145.304,145.296c80.12,0,145.296-65.176,145.296-145.296
	C399.64,81.176,334.464,16,254.344,16z"/>
<rect x="246.344" y="3.376" width="16" height="307.76"/>
<rect x="100.808" y="153.28" width="310.144" height="16"/>
<path d="M254.16,124.48c-80.928,0-113.2-67.272-114.536-70.144l14.496-6.768c0.008,0,0.008,0.008,0.008,0.016l0,0
	c1.28,2.704,29.648,60.888,100.04,60.888c70.816,0,98.96-59.592,99.232-60.192l14.544,6.68
	C366.632,57.792,335.128,124.48,254.16,124.48z"/>
<path d="M154.12,275.016l-14.496-6.752c1.336-2.864,33.608-70.144,114.536-70.144c80.968,0,112.48,66.68,113.784,69.512
	l-14.544,6.672c-1.136-2.448-28.752-60.184-99.232-60.184C183.312,214.12,154.408,274.408,154.12,275.016z"/>
<path d="M245.624,321.608c-3.056-2.792-74.76-69.464-74.76-160.304c0-90.992,73.352-155.2,76.48-157.888l10.448,12.12
	c-0.712,0.616-70.92,62.24-70.92,145.776c0,83.872,68.856,147.864,69.552,148.504L245.624,321.608z"/>
<path d="M263.064,321.608l-10.808-11.8c0.696-0.64,69.56-64.832,69.56-148.504c0-83.728-70.2-145.16-70.912-145.768l10.44-12.128
	c3.128,2.688,76.48,66.896,76.48,157.888C337.824,252.144,266.12,318.816,263.064,321.608z"/>
<g>
	<path style="fill:#25B6D2;" d="M19.144,493.616c0-10.896,7.576-18.712,18-18.712c10.656,0,17.992,7.576,17.992,18.712
		c0,10.656-7.104,18.704-17.992,18.704C26.488,512.32,19.144,504.272,19.144,493.616z"/>
	<path style="fill:#25B6D2;" d="M111.96,361.464v32.92h27.704v21.792H111.96v50.912c0,13.968,3.792,21.312,14.912,21.312
		c4.976,0,8.768-0.712,11.368-1.424l0.48,22.256c-4.264,1.672-11.84,2.848-21.08,2.848c-10.656,0-19.656-3.552-25.104-9.472
		c-6.16-6.632-9-17.056-9-32.208v-54.224H66.96v-21.792h16.576v-26.056L111.96,361.464z"/>
	<path style="fill:#25B6D2;" d="M180.864,460.224c0.712,20.832,17.048,29.832,35.52,29.832c13.504,0,23.2-1.888,31.968-5.208
		l4.264,20.136c-9.952,4.024-23.68,7.096-40.264,7.096c-37.416,0-59.44-22.968-59.44-58.256c0-31.968,19.424-62.048,56.36-62.048
		c37.424,0,49.736,30.792,49.736,56.128c0,5.456-0.48,9.712-0.944,12.32L180.864,460.224L180.864,460.224z M231.544,439.856
		c0.232-10.656-4.496-28.176-23.92-28.176c-18,0-25.576,16.336-26.76,28.176H231.544z"/>
	<path style="fill:#25B6D2;" d="M367.216,506.16c-6.168,2.84-18.24,5.92-32.688,5.92c-35.992,0-59.44-22.968-59.44-58.728
		c0-34.576,23.68-61.576,64.176-61.576c10.656,0,21.544,2.376,28.176,5.456l-5.208,21.784c-4.736-2.128-11.6-4.496-22.024-4.496
		c-22.264,0-35.52,16.344-35.288,37.424c0,23.68,15.4,37.176,35.288,37.176c10.176,0,17.288-2.136,22.968-4.496L367.216,506.16z"/>
	<path style="fill:#25B6D2;" d="M388.744,341.576h29.36v68.68h0.48c3.552-5.448,8.288-9.944,14.448-13.264
		c5.688-3.312,12.552-5.208,19.888-5.208c19.656,0,40.256,13.032,40.256,49.968v67.968h-29.128v-64.648
		c0-16.824-6.16-29.368-22.256-29.368c-11.368,0-19.424,7.576-22.496,16.344c-0.944,2.368-1.184,5.448-1.184,8.76v68.912h-29.368
		V341.576z"/>
</g>
<g>
</g>
<g>
</g>
<g>
</g>
<g>
</g>
<g>
</g>
<g>
</g>
<g>
</g>
<g>
</g>
<g>
</g>
<g>
</g>
<g>
</g>
<g>
</g>
<g>
</g>
<g>
</g>
<g>
</g>
</svg>
